<?xml version="1.0" encoding="UTF-8"?>
<svg id="Layer_2" data-name="Layer 2" xmlns="http://www.w3.org/2000/svg" viewBox="0 0 113.04 115.49">
  <defs>
    <style>
      .cls-1 {
        fill: #0057ff;
      }

      .cls-2 {
        fill: #fff;
      }
    </style>
  </defs>
  <g id="Layer_1-2" data-name="Layer 1">
    <g>
      <g>
        <path class="cls-1" d="M32.41,23.89V5.43c0-3-2.43-5.43-5.43-5.43H5.43C2.43,0,0,2.43,0,5.43v104.62c0,5.17,6.53,7.41,9.71,3.33L91.15,8.76c2.77-3.56.23-8.76-4.28-8.76h-20.92c-1.67,0-3.25.77-4.28,2.09l-19.56,25.13c-3.17,4.08-9.71,1.83-9.71-3.33Z"/>
        <path class="cls-2" d="M80.64,91.6v18.46c0,3,2.43,5.43,5.43,5.43h21.55c3,0,5.43-2.43,5.43-5.43V5.44c0-5.17-6.53-7.41-9.71-3.33L21.89,106.73c-2.77,3.56-.23,8.76,4.28,8.76h20.92c1.67,0,3.25-.77,4.28-2.09l19.56-25.13c3.17-4.08,9.71-1.83,9.71,3.33Z"/>
      </g>
      <path d="M82.7,78.52c-24.47-16.69-26.91-16.41-46.96,5.4,16.69-24.47,16.41-26.91-5.4-46.96,24.47,16.69,26.91,16.41,46.96-5.4-16.69,24.47-16.41,26.91,5.4,46.96Z"/>
    </g>
  </g>
</svg>