<?xml version="1.0" encoding="UTF-8"?>
<svg id="Layer_2" data-name="Layer 2" xmlns="http://www.w3.org/2000/svg" viewBox="0 0 161.28 16.67">
  <defs>
    <style>
      .cls-1 {
        fill: #fff;
      }
    </style>
  </defs>
  <g id="Layer_1-2" data-name="Layer 1">
    <g>
      <path class="cls-1" d="M16.67.41h7.74l-8.33,7.94,8.33,7.94h-7.74l-4.46-4.65-4.46,4.65H0l8.33-7.94L0,.41h7.75l4.46,4.63L16.67.41Z"/>
      <path class="cls-1" d="M32.24,16.3V5.45h-7.36V.41h20.92v5.04h-7.36v10.85h-6.19Z"/>
      <path class="cls-1" d="M61.34.37c1.31.25,2.46.67,3.45,1.25.99.59,1.76,1.38,2.33,2.38.56,1,.85,2.25.85,3.75v1.16c0,1.5-.28,2.74-.85,3.74s-1.34,1.79-2.33,2.38-2.14,1.01-3.45,1.26c-1.31.25-2.72.37-4.21.37s-2.9-.12-4.22-.37-2.47-.67-3.46-1.26c-.99-.59-1.77-1.38-2.33-2.38s-.84-2.24-.84-3.74v-1.16c0-1.5.28-2.75.84-3.75.56-1,1.34-1.79,2.33-2.38.99-.59,2.14-1,3.46-1.25,1.32-.25,2.72-.37,4.22-.37s2.9.12,4.21.37ZM61.77,8.52v-.39c0-.85-.21-1.5-.63-1.94-.42-.44-.98-.75-1.68-.91-.71-.16-1.48-.24-2.33-.24s-1.64.08-2.35.24c-.71.16-1.27.47-1.68.91-.42.45-.63,1.09-.63,1.94v.39c0,.86.21,1.51.63,1.96.42.45.98.75,1.68.91s1.49.24,2.35.24,1.63-.08,2.33-.24,1.27-.46,1.68-.91.63-1.1.63-1.96Z"/>
      <path class="cls-1" d="M85.1.41c1.1,0,2.11.27,3.02.81s1.64,1.26,2.17,2.17c.54.91.81,1.92.81,3.03s-.27,2.11-.81,3.02c-.54.91-1.26,1.63-2.17,2.17s-1.92.81-3.02.81h-9.11v3.88h-6.19V.41h15.31ZM83.55,7.77c.37,0,.69-.13.95-.4.26-.26.4-.58.4-.95s-.13-.7-.4-.96c-.26-.26-.58-.4-.95-.4h-7.56v2.71h7.56Z"/>
      <path class="cls-1" d="M98.98,10.85v5.43h-6.19V.39h6.19v5.42h9.3V.39h6.21v15.89h-6.21v-5.43h-9.3Z"/>
      <path class="cls-1" d="M118.09.41h18.59v4.07h-12.4v2.03h12.4v3.68h-12.4v2.03h12.4v4.08h-18.59V.41Z"/>
      <path class="cls-1" d="M155.27.4c1.1,0,2.11.27,3.02.81s1.64,1.26,2.17,2.17c.54.91.81,1.92.81,3.03,0,1.2-.32,2.28-.95,3.25-.63.96-1.47,1.69-2.51,2.18l3.46,4.46h-6.59l-2.99-3.88h-5.53v3.88h-6.19V.4h15.31ZM146.16,5.05v2.71h7.55c.38,0,.7-.13.96-.4.26-.26.4-.58.4-.95s-.13-.7-.4-.96c-.26-.26-.58-.4-.96-.4h-7.55Z"/>
    </g>
  </g>
</svg>